<mxfile host="Electron" modified="2023-05-01T22:31:01.727Z" agent="Mozilla/5.0 (X11; Linux x86_64) AppleWebKit/537.36 (KHTML, like Gecko) draw.io/21.1.2 Chrome/106.0.5249.199 Electron/21.4.3 Safari/537.36" etag="BwFZnp-E7kxbKHrkKoWb" version="21.1.2" type="device">
  <diagram name="Page-1" id="oIEaORxIONn3XP63vPW7">
    <mxGraphModel dx="6420" dy="4405" grid="1" gridSize="10" guides="1" tooltips="1" connect="1" arrows="1" fold="1" page="1" pageScale="1" pageWidth="850" pageHeight="1100" math="0" shadow="0">
      <root>
        <mxCell id="0" />
        <mxCell id="1" parent="0" />
        <mxCell id="Z3nzhOM3U2brWOWdlAQY-47" value="" style="rounded=0;whiteSpace=wrap;html=1;fillColor=#1ba1e2;fontColor=#ffffff;strokeColor=#006EAF;" vertex="1" parent="1">
          <mxGeometry x="-740" y="-60" width="3670" height="2850" as="geometry" />
        </mxCell>
        <mxCell id="Z3nzhOM3U2brWOWdlAQY-22" style="edgeStyle=orthogonalEdgeStyle;rounded=0;orthogonalLoop=1;jettySize=auto;html=1;" edge="1" parent="1" source="BSGLYzGENLoZ9J6qebz2-4" target="BSGLYzGENLoZ9J6qebz2-5">
          <mxGeometry relative="1" as="geometry" />
        </mxCell>
        <mxCell id="BSGLYzGENLoZ9J6qebz2-4" value="&lt;font style=&quot;font-size: 15px;&quot;&gt;&lt;b&gt;Start&lt;/b&gt;&lt;/font&gt;" style="ellipse;whiteSpace=wrap;html=1;" parent="1" vertex="1">
          <mxGeometry x="55" y="40" width="120" height="80" as="geometry" />
        </mxCell>
        <mxCell id="Z3nzhOM3U2brWOWdlAQY-10" style="edgeStyle=orthogonalEdgeStyle;rounded=0;orthogonalLoop=1;jettySize=auto;html=1;entryX=0.5;entryY=0;entryDx=0;entryDy=0;" edge="1" parent="1" source="BSGLYzGENLoZ9J6qebz2-5" target="Z3nzhOM3U2brWOWdlAQY-1">
          <mxGeometry relative="1" as="geometry" />
        </mxCell>
        <mxCell id="Z3nzhOM3U2brWOWdlAQY-11" style="edgeStyle=orthogonalEdgeStyle;rounded=0;orthogonalLoop=1;jettySize=auto;html=1;" edge="1" parent="1" source="BSGLYzGENLoZ9J6qebz2-5" target="Z3nzhOM3U2brWOWdlAQY-2">
          <mxGeometry relative="1" as="geometry" />
        </mxCell>
        <mxCell id="BSGLYzGENLoZ9J6qebz2-5" value="&lt;p style=&quot;line-height: 190%;&quot;&gt;&lt;b&gt;Student registration Number&lt;br&gt;Password&lt;br&gt;Beacon uuid&lt;br&gt;&lt;/b&gt;&lt;/p&gt;" style="shape=parallelogram;perimeter=parallelogramPerimeter;whiteSpace=wrap;html=1;fixedSize=1;" parent="1" vertex="1">
          <mxGeometry x="-10" y="200" width="250" height="100" as="geometry" />
        </mxCell>
        <mxCell id="Z3nzhOM3U2brWOWdlAQY-4" style="edgeStyle=orthogonalEdgeStyle;rounded=0;orthogonalLoop=1;jettySize=auto;html=1;entryX=0;entryY=0.5;entryDx=0;entryDy=0;" edge="1" parent="1" source="Z3nzhOM3U2brWOWdlAQY-1" target="Z3nzhOM3U2brWOWdlAQY-3">
          <mxGeometry relative="1" as="geometry" />
        </mxCell>
        <mxCell id="Z3nzhOM3U2brWOWdlAQY-1" value="&lt;b&gt;&lt;font style=&quot;font-size: 22px;&quot;&gt;Check student credential&lt;/font&gt;&lt;/b&gt;" style="rounded=0;whiteSpace=wrap;html=1;" vertex="1" parent="1">
          <mxGeometry x="-210" y="420" width="260" height="90" as="geometry" />
        </mxCell>
        <mxCell id="Z3nzhOM3U2brWOWdlAQY-5" style="edgeStyle=orthogonalEdgeStyle;rounded=0;orthogonalLoop=1;jettySize=auto;html=1;entryX=1;entryY=0.5;entryDx=0;entryDy=0;" edge="1" parent="1" source="Z3nzhOM3U2brWOWdlAQY-2" target="Z3nzhOM3U2brWOWdlAQY-3">
          <mxGeometry relative="1" as="geometry" />
        </mxCell>
        <mxCell id="Z3nzhOM3U2brWOWdlAQY-2" value="&lt;b&gt;&lt;font style=&quot;font-size: 22px;&quot;&gt;Check Availability of beacon&lt;/font&gt;&lt;/b&gt;" style="rounded=0;whiteSpace=wrap;html=1;" vertex="1" parent="1">
          <mxGeometry x="165" y="420" width="260" height="90" as="geometry" />
        </mxCell>
        <mxCell id="Z3nzhOM3U2brWOWdlAQY-12" style="edgeStyle=orthogonalEdgeStyle;rounded=0;orthogonalLoop=1;jettySize=auto;html=1;entryX=0.5;entryY=0;entryDx=0;entryDy=0;" edge="1" parent="1" source="Z3nzhOM3U2brWOWdlAQY-3" target="Z3nzhOM3U2brWOWdlAQY-6">
          <mxGeometry relative="1" as="geometry" />
        </mxCell>
        <mxCell id="Z3nzhOM3U2brWOWdlAQY-16" value="&lt;b&gt;&lt;font style=&quot;font-size: 15px;&quot;&gt;yes&lt;/font&gt;&lt;/b&gt;" style="edgeLabel;html=1;align=center;verticalAlign=middle;resizable=0;points=[];" vertex="1" connectable="0" parent="Z3nzhOM3U2brWOWdlAQY-12">
          <mxGeometry x="-0.2319" y="-2" relative="1" as="geometry">
            <mxPoint as="offset" />
          </mxGeometry>
        </mxCell>
        <mxCell id="Z3nzhOM3U2brWOWdlAQY-38" style="edgeStyle=orthogonalEdgeStyle;rounded=0;orthogonalLoop=1;jettySize=auto;html=1;entryX=0;entryY=0.5;entryDx=0;entryDy=0;exitX=0;exitY=0.5;exitDx=0;exitDy=0;" edge="1" parent="1" source="Z3nzhOM3U2brWOWdlAQY-3" target="Z3nzhOM3U2brWOWdlAQY-35">
          <mxGeometry relative="1" as="geometry">
            <mxPoint x="-500.00000000000045" y="2060" as="targetPoint" />
          </mxGeometry>
        </mxCell>
        <mxCell id="Z3nzhOM3U2brWOWdlAQY-3" value="&lt;b&gt;&lt;font style=&quot;font-size: 22px;&quot;&gt;Validated Login&lt;/font&gt;&lt;/b&gt;" style="rhombus;whiteSpace=wrap;html=1;" vertex="1" parent="1">
          <mxGeometry x="-45" y="640" width="270" height="140" as="geometry" />
        </mxCell>
        <mxCell id="Z3nzhOM3U2brWOWdlAQY-14" style="edgeStyle=orthogonalEdgeStyle;rounded=0;orthogonalLoop=1;jettySize=auto;html=1;entryX=0;entryY=0.5;entryDx=0;entryDy=0;" edge="1" parent="1" source="Z3nzhOM3U2brWOWdlAQY-6" target="Z3nzhOM3U2brWOWdlAQY-13">
          <mxGeometry relative="1" as="geometry" />
        </mxCell>
        <mxCell id="Z3nzhOM3U2brWOWdlAQY-6" value="&lt;b&gt;&lt;font style=&quot;font-size: 22px;&quot;&gt;Check student Module&lt;/font&gt;&lt;/b&gt;" style="rounded=0;whiteSpace=wrap;html=1;" vertex="1" parent="1">
          <mxGeometry x="-40" y="920" width="260" height="90" as="geometry" />
        </mxCell>
        <mxCell id="Z3nzhOM3U2brWOWdlAQY-20" style="edgeStyle=orthogonalEdgeStyle;rounded=0;orthogonalLoop=1;jettySize=auto;html=1;entryX=0.5;entryY=0;entryDx=0;entryDy=0;" edge="1" parent="1" source="Z3nzhOM3U2brWOWdlAQY-7" target="Z3nzhOM3U2brWOWdlAQY-19">
          <mxGeometry relative="1" as="geometry" />
        </mxCell>
        <mxCell id="Z3nzhOM3U2brWOWdlAQY-7" value="&lt;b&gt;&lt;font style=&quot;font-size: 22px;&quot;&gt;Check Module Venue&lt;/font&gt;&lt;/b&gt;" style="rounded=0;whiteSpace=wrap;html=1;" vertex="1" parent="1">
          <mxGeometry x="840" y="920" width="260" height="90" as="geometry" />
        </mxCell>
        <mxCell id="Z3nzhOM3U2brWOWdlAQY-24" style="edgeStyle=orthogonalEdgeStyle;rounded=0;orthogonalLoop=1;jettySize=auto;html=1;" edge="1" parent="1" source="Z3nzhOM3U2brWOWdlAQY-8" target="Z3nzhOM3U2brWOWdlAQY-23">
          <mxGeometry relative="1" as="geometry" />
        </mxCell>
        <mxCell id="Z3nzhOM3U2brWOWdlAQY-8" value="&lt;b&gt;&lt;font style=&quot;font-size: 22px;&quot;&gt;Check Time&lt;/font&gt;&lt;/b&gt;" style="rounded=0;whiteSpace=wrap;html=1;" vertex="1" parent="1">
          <mxGeometry x="840" y="1440" width="260" height="90" as="geometry" />
        </mxCell>
        <mxCell id="Z3nzhOM3U2brWOWdlAQY-15" style="edgeStyle=orthogonalEdgeStyle;rounded=0;orthogonalLoop=1;jettySize=auto;html=1;entryX=0;entryY=0.5;entryDx=0;entryDy=0;" edge="1" parent="1" source="Z3nzhOM3U2brWOWdlAQY-13" target="Z3nzhOM3U2brWOWdlAQY-7">
          <mxGeometry relative="1" as="geometry" />
        </mxCell>
        <mxCell id="Z3nzhOM3U2brWOWdlAQY-18" value="&lt;b&gt;&lt;font style=&quot;font-size: 15px;&quot;&gt;YES&lt;/font&gt;&lt;/b&gt;" style="edgeLabel;html=1;align=center;verticalAlign=middle;resizable=0;points=[];" vertex="1" connectable="0" parent="Z3nzhOM3U2brWOWdlAQY-15">
          <mxGeometry x="-0.2416" y="-2" relative="1" as="geometry">
            <mxPoint as="offset" />
          </mxGeometry>
        </mxCell>
        <mxCell id="Z3nzhOM3U2brWOWdlAQY-39" style="edgeStyle=orthogonalEdgeStyle;rounded=0;orthogonalLoop=1;jettySize=auto;html=1;exitX=0.5;exitY=1;exitDx=0;exitDy=0;" edge="1" parent="1" source="Z3nzhOM3U2brWOWdlAQY-13" target="Z3nzhOM3U2brWOWdlAQY-35">
          <mxGeometry relative="1" as="geometry" />
        </mxCell>
        <mxCell id="Z3nzhOM3U2brWOWdlAQY-41" value="&lt;b&gt;&lt;font style=&quot;font-size: 15px;&quot;&gt;NO&lt;/font&gt;&lt;/b&gt;" style="edgeLabel;html=1;align=center;verticalAlign=middle;resizable=0;points=[];" vertex="1" connectable="0" parent="Z3nzhOM3U2brWOWdlAQY-39">
          <mxGeometry x="-0.5244" y="1" relative="1" as="geometry">
            <mxPoint as="offset" />
          </mxGeometry>
        </mxCell>
        <mxCell id="Z3nzhOM3U2brWOWdlAQY-13" value="&lt;span style=&quot;font-size: 22px;&quot;&gt;&lt;b&gt;Student have Module&lt;/b&gt;&lt;/span&gt;" style="rhombus;whiteSpace=wrap;html=1;" vertex="1" parent="1">
          <mxGeometry x="360" y="895" width="320" height="140" as="geometry" />
        </mxCell>
        <mxCell id="Z3nzhOM3U2brWOWdlAQY-21" style="edgeStyle=orthogonalEdgeStyle;rounded=0;orthogonalLoop=1;jettySize=auto;html=1;entryX=0.5;entryY=0;entryDx=0;entryDy=0;" edge="1" parent="1" source="Z3nzhOM3U2brWOWdlAQY-19" target="Z3nzhOM3U2brWOWdlAQY-8">
          <mxGeometry relative="1" as="geometry" />
        </mxCell>
        <mxCell id="Z3nzhOM3U2brWOWdlAQY-40" style="edgeStyle=orthogonalEdgeStyle;rounded=0;orthogonalLoop=1;jettySize=auto;html=1;entryX=1;entryY=0;entryDx=0;entryDy=0;" edge="1" parent="1" source="Z3nzhOM3U2brWOWdlAQY-19" target="Z3nzhOM3U2brWOWdlAQY-35">
          <mxGeometry relative="1" as="geometry">
            <Array as="points">
              <mxPoint x="580" y="1230" />
              <mxPoint x="580" y="2242" />
            </Array>
          </mxGeometry>
        </mxCell>
        <mxCell id="Z3nzhOM3U2brWOWdlAQY-45" value="NO" style="edgeLabel;html=1;align=center;verticalAlign=middle;resizable=0;points=[];" vertex="1" connectable="0" parent="Z3nzhOM3U2brWOWdlAQY-40">
          <mxGeometry x="-0.324" y="3" relative="1" as="geometry">
            <mxPoint y="1" as="offset" />
          </mxGeometry>
        </mxCell>
        <mxCell id="Z3nzhOM3U2brWOWdlAQY-19" value="&lt;span style=&quot;font-size: 22px;&quot;&gt;&lt;b&gt;Module have venue&lt;/b&gt;&lt;/span&gt;" style="rhombus;whiteSpace=wrap;html=1;" vertex="1" parent="1">
          <mxGeometry x="835" y="1160" width="270" height="140" as="geometry" />
        </mxCell>
        <mxCell id="Z3nzhOM3U2brWOWdlAQY-26" style="edgeStyle=orthogonalEdgeStyle;rounded=0;orthogonalLoop=1;jettySize=auto;html=1;entryX=0;entryY=0.5;entryDx=0;entryDy=0;" edge="1" parent="1" source="Z3nzhOM3U2brWOWdlAQY-23" target="Z3nzhOM3U2brWOWdlAQY-25">
          <mxGeometry relative="1" as="geometry" />
        </mxCell>
        <mxCell id="Z3nzhOM3U2brWOWdlAQY-27" value="&lt;b&gt;&lt;font style=&quot;font-size: 15px;&quot;&gt;YES&lt;/font&gt;&lt;/b&gt;" style="edgeLabel;html=1;align=center;verticalAlign=middle;resizable=0;points=[];" vertex="1" connectable="0" parent="Z3nzhOM3U2brWOWdlAQY-26">
          <mxGeometry x="-0.3236" y="-2" relative="1" as="geometry">
            <mxPoint as="offset" />
          </mxGeometry>
        </mxCell>
        <mxCell id="Z3nzhOM3U2brWOWdlAQY-42" style="edgeStyle=orthogonalEdgeStyle;rounded=0;orthogonalLoop=1;jettySize=auto;html=1;entryX=1;entryY=0.5;entryDx=0;entryDy=0;" edge="1" parent="1" source="Z3nzhOM3U2brWOWdlAQY-23" target="Z3nzhOM3U2brWOWdlAQY-35">
          <mxGeometry relative="1" as="geometry">
            <Array as="points">
              <mxPoint x="1400" y="2270" />
            </Array>
          </mxGeometry>
        </mxCell>
        <mxCell id="Z3nzhOM3U2brWOWdlAQY-44" value="&lt;b&gt;&lt;font style=&quot;font-size: 15px;&quot;&gt;NO&lt;/font&gt;&lt;/b&gt;" style="edgeLabel;html=1;align=center;verticalAlign=middle;resizable=0;points=[];" vertex="1" connectable="0" parent="Z3nzhOM3U2brWOWdlAQY-42">
          <mxGeometry x="-0.6301" y="1" relative="1" as="geometry">
            <mxPoint y="-1" as="offset" />
          </mxGeometry>
        </mxCell>
        <mxCell id="Z3nzhOM3U2brWOWdlAQY-23" value="&lt;span style=&quot;font-size: 22px;&quot;&gt;&lt;b&gt;verified timetable&lt;/b&gt;&lt;/span&gt;" style="rhombus;whiteSpace=wrap;html=1;" vertex="1" parent="1">
          <mxGeometry x="1275" y="1415" width="270" height="140" as="geometry" />
        </mxCell>
        <mxCell id="Z3nzhOM3U2brWOWdlAQY-29" style="edgeStyle=orthogonalEdgeStyle;rounded=0;orthogonalLoop=1;jettySize=auto;html=1;entryX=0.5;entryY=0;entryDx=0;entryDy=0;" edge="1" parent="1" source="Z3nzhOM3U2brWOWdlAQY-25" target="Z3nzhOM3U2brWOWdlAQY-28">
          <mxGeometry relative="1" as="geometry" />
        </mxCell>
        <mxCell id="Z3nzhOM3U2brWOWdlAQY-25" value="&lt;span style=&quot;font-size: 22px;&quot;&gt;&lt;b&gt;Record Student Attendance&lt;/b&gt;&lt;/span&gt;" style="rounded=0;whiteSpace=wrap;html=1;" vertex="1" parent="1">
          <mxGeometry x="1682.5" y="1440" width="260" height="90" as="geometry" />
        </mxCell>
        <mxCell id="Z3nzhOM3U2brWOWdlAQY-31" style="edgeStyle=orthogonalEdgeStyle;rounded=0;orthogonalLoop=1;jettySize=auto;html=1;" edge="1" parent="1" source="Z3nzhOM3U2brWOWdlAQY-28" target="Z3nzhOM3U2brWOWdlAQY-30">
          <mxGeometry relative="1" as="geometry" />
        </mxCell>
        <mxCell id="Z3nzhOM3U2brWOWdlAQY-43" style="edgeStyle=orthogonalEdgeStyle;rounded=0;orthogonalLoop=1;jettySize=auto;html=1;entryX=1;entryY=1;entryDx=0;entryDy=0;" edge="1" parent="1" source="Z3nzhOM3U2brWOWdlAQY-28" target="Z3nzhOM3U2brWOWdlAQY-35">
          <mxGeometry relative="1" as="geometry">
            <Array as="points">
              <mxPoint x="1810" y="2298" />
            </Array>
          </mxGeometry>
        </mxCell>
        <mxCell id="Z3nzhOM3U2brWOWdlAQY-46" value="&lt;b&gt;&lt;font style=&quot;font-size: 15px;&quot;&gt;NO&lt;/font&gt;&lt;/b&gt;" style="edgeLabel;html=1;align=center;verticalAlign=middle;resizable=0;points=[];" vertex="1" connectable="0" parent="Z3nzhOM3U2brWOWdlAQY-43">
          <mxGeometry x="-0.8293" relative="1" as="geometry">
            <mxPoint as="offset" />
          </mxGeometry>
        </mxCell>
        <mxCell id="Z3nzhOM3U2brWOWdlAQY-28" value="&lt;span style=&quot;font-size: 22px;&quot;&gt;&lt;b&gt;student attended &lt;br&gt;recored&lt;/b&gt;&lt;/span&gt;" style="rhombus;whiteSpace=wrap;html=1;" vertex="1" parent="1">
          <mxGeometry x="1660" y="1660" width="305" height="190" as="geometry" />
        </mxCell>
        <mxCell id="Z3nzhOM3U2brWOWdlAQY-33" style="edgeStyle=orthogonalEdgeStyle;rounded=0;orthogonalLoop=1;jettySize=auto;html=1;" edge="1" parent="1" source="Z3nzhOM3U2brWOWdlAQY-30" target="Z3nzhOM3U2brWOWdlAQY-32">
          <mxGeometry relative="1" as="geometry" />
        </mxCell>
        <mxCell id="Z3nzhOM3U2brWOWdlAQY-30" value="&lt;span style=&quot;font-size: 22px;&quot;&gt;&lt;b&gt;Analyze Student Attendance&lt;/b&gt;&lt;/span&gt;" style="rounded=0;whiteSpace=wrap;html=1;" vertex="1" parent="1">
          <mxGeometry x="2100" y="1710" width="260" height="90" as="geometry" />
        </mxCell>
        <mxCell id="Z3nzhOM3U2brWOWdlAQY-36" style="edgeStyle=orthogonalEdgeStyle;rounded=0;orthogonalLoop=1;jettySize=auto;html=1;entryX=0.5;entryY=0;entryDx=0;entryDy=0;" edge="1" parent="1" source="Z3nzhOM3U2brWOWdlAQY-32" target="Z3nzhOM3U2brWOWdlAQY-34">
          <mxGeometry relative="1" as="geometry" />
        </mxCell>
        <mxCell id="Z3nzhOM3U2brWOWdlAQY-32" value="&lt;span style=&quot;font-size: 22px;&quot;&gt;&lt;b&gt;Download the Attendance&lt;/b&gt;&lt;/span&gt;" style="rounded=0;whiteSpace=wrap;html=1;" vertex="1" parent="1">
          <mxGeometry x="2100" y="1910" width="260" height="90" as="geometry" />
        </mxCell>
        <mxCell id="Z3nzhOM3U2brWOWdlAQY-37" style="edgeStyle=orthogonalEdgeStyle;rounded=0;orthogonalLoop=1;jettySize=auto;html=1;entryX=0.582;entryY=1.047;entryDx=0;entryDy=0;entryPerimeter=0;exitX=0;exitY=0.75;exitDx=0;exitDy=0;" edge="1" parent="1" source="Z3nzhOM3U2brWOWdlAQY-34" target="Z3nzhOM3U2brWOWdlAQY-35">
          <mxGeometry relative="1" as="geometry">
            <Array as="points">
              <mxPoint x="2065" y="2380" />
              <mxPoint x="-15" y="2380" />
            </Array>
          </mxGeometry>
        </mxCell>
        <mxCell id="Z3nzhOM3U2brWOWdlAQY-34" value="&lt;b&gt;&lt;font style=&quot;font-size: 22px;&quot;&gt;CSV, PDF&amp;nbsp;&lt;/font&gt;&lt;/b&gt;" style="shape=parallelogram;perimeter=parallelogramPerimeter;whiteSpace=wrap;html=1;fixedSize=1;" vertex="1" parent="1">
          <mxGeometry x="2060" y="2340" width="340" height="60" as="geometry" />
        </mxCell>
        <mxCell id="Z3nzhOM3U2brWOWdlAQY-35" value="&lt;b&gt;&lt;font style=&quot;font-size: 22px;&quot;&gt;End&lt;/font&gt;&lt;/b&gt;" style="ellipse;whiteSpace=wrap;html=1;" vertex="1" parent="1">
          <mxGeometry x="-85" y="2230" width="120" height="80" as="geometry" />
        </mxCell>
      </root>
    </mxGraphModel>
  </diagram>
</mxfile>
